<?xml version="1.0" standalone="no"?>
<!DOCTYPE svg PUBLIC "-//W3C//DTD SVG 1.1//EN" "http://www.w3.org/Graphics/SVG/1.1/DTD/svg11.dtd" >
<svg xmlns="http://www.w3.org/2000/svg" xmlns:xlink="http://www.w3.org/1999/xlink" version="1.1">
<metadata>
Created by FontForge 20200314 at Wed Feb  8 15:12:08 2017
 By Unknown
Copyright (c) Phanlop Thongsuk, 1995-2017. All rights reserved.
</metadata>
<defs>
<font id="KittithadaBold75" horiz-adv-x="0" >
  <font-face 
    font-family="Kittithada Bold 75"
    font-weight="400"
    font-stretch="normal"
    units-per-em="1000"
    panose-1="2 0 5 6 0 0 0 2 0 4"
    ascent="750"
    descent="-250"
    bbox="-654 -446 1046 1089"
    underline-thickness="60"
    underline-position="-120"
    unicode-range="U+0020-E006"
  />
<missing-glyph horiz-adv-x="1089" 
d="M68 0v1089h953v-1089h-953zM954 68v953h-817v-953h817z" />
    <glyph glyph-name=".notdef" horiz-adv-x="1089" 
d="M68 0v1089h953v-1089h-953zM954 68v953h-817v-953h817z" />
    <glyph glyph-name=".null" 
 />
    <glyph glyph-name="nonmarkingreturn" horiz-adv-x="333" 
 />
    <glyph glyph-name="space" unicode=" " horiz-adv-x="400" 
 />
    <glyph glyph-name="space" unicode="&#xa0;" horiz-adv-x="400" 
 />
    <glyph glyph-name="exclam" unicode="!" horiz-adv-x="251" 
d="M194 476l-36 -279h-65l-34 279v181h135v-181zM198 0h-144v142h144v-142z" />
    <glyph glyph-name="quotedbl" unicode="&#x22;" horiz-adv-x="420" 
d="M343 361h-97v296h97v-296zM174 361h-99v296h99v-296z" />
    <glyph glyph-name="numbersign" unicode="#" horiz-adv-x="511" 
d="M481 379h-78l-15 -114h65v-82h-78l-25 -183h-88l25 183h-93l-27 -183h-87l26 183h-75v82h85l17 114h-76v83h85l27 182h88l-27 -182h96l24 182h88l-24 -182h67v-83zM315 379h-95l-16 -114h96z" />
    <glyph glyph-name="dollar" unicode="$" horiz-adv-x="544" 
d="M522 195q0 -89 -58 -146.5t-165 -63.5v-78h-53v79q-97 8 -161 67.5t-63 165.5h126q0 -51 27 -81t71 -39v179q-42 11 -74.5 24.5t-64 36t-48.5 57t-17 78.5q0 88 59.5 140t144.5 57v73h53v-73q90 -9 147.5 -60.5t57.5 -148.5h-127q-4 80 -78 95v-157q46 -13 71.5 -21.5
t59 -25.5t50.5 -36.5t29.5 -50.5t12.5 -71zM246 414v145q-33 -3 -56 -22.5t-23 -51.5q0 -25 18.5 -41t60.5 -30zM395 179q0 35 -25 54.5t-71 32.5v-170q40 4 68 23.5t28 59.5z" />
    <glyph glyph-name="percent" unicode="%" horiz-adv-x="854" 
d="M797 165q0 -80 -38 -129t-113 -49q-149 0 -149 182q0 79 38.5 128t113.5 49q148 0 148 -181zM657 665l-374 -686h-79l375 686h78zM357 472q0 -80 -38 -126.5t-114 -46.5q-149 0 -149 177q0 79 39 130t116 51q146 0 146 -185zM706 166q0 112 -57 112q-62 0 -62 -111
t59 -111q60 0 60 110zM266 473q0 116 -55 116q-63 0 -63 -116q0 -106 58 -106q60 0 60 106z" />
    <glyph glyph-name="ampersand" unicode="&#x26;" horiz-adv-x="624" 
d="M633 0h-156l-54 66q-77 -79 -183 -79q-91 0 -151 53.5t-60 143.5q0 64 40.5 112.5t104.5 78.5q-61 73 -61 140q0 65 50.5 107.5t119.5 42.5q77 0 128 -41.5t51 -115.5q0 -104 -116 -165l84 -103q16 32 23 78h112q-9 -92 -61 -162zM349 515q0 25 -18 44t-42 19t-42 -17
t-18 -42q0 -10 2.5 -20t5 -16.5t10 -17l10 -14t13 -16t12.5 -14.5q23 15 34.5 25t22 28t10.5 41zM356 153l-113 137q-92 -43 -92 -109q0 -35 29 -60.5t66 -25.5q57 0 110 58z" />
    <glyph glyph-name="quotesingle" unicode="'" horiz-adv-x="254" 
d="M177 361h-99v296h99v-296z" />
    <glyph glyph-name="parenleft" unicode="(" horiz-adv-x="279" 
d="M276 -140h-107q-58 91 -89 201t-31 219q0 232 120 420h107q-97 -185 -97 -420q0 -233 97 -420z" />
    <glyph glyph-name="parenright" unicode=")" horiz-adv-x="279" 
d="M227 280q0 -109 -31 -219t-89 -201h-107q98 189 98 420q0 233 -98 420h107q120 -185 120 -420z" />
    <glyph glyph-name="asterisk" unicode="*" horiz-adv-x="375" 
d="M356 506l-110 -30l72 -85l-72 -53l-60 97l-62 -99l-75 55l78 85l-110 30l30 83l102 -46l-7 114h88l-7 -114l105 46z" />
    <glyph glyph-name="plus" unicode="+" horiz-adv-x="505" 
d="M470 183h-169v-169h-99v169h-167v99h167v167h99v-167h169v-99z" />
    <glyph glyph-name="comma" unicode="," horiz-adv-x="250" 
d="M194 142v-142q0 -62 -40 -103t-102 -50v67q29 4 48 30t17 56h-61v142h138z" />
    <glyph glyph-name="hyphen" unicode="-" horiz-adv-x="370" 
d="M321 195h-274v112h274v-112z" />
    <glyph glyph-name="period" unicode="." horiz-adv-x="250" 
d="M194 0h-138v142h138v-142z" />
    <glyph glyph-name="slash" unicode="/" horiz-adv-x="336" 
d="M347 672l-255 -687h-103l255 687h103z" />
    <glyph glyph-name="zero" unicode="0" horiz-adv-x="505" 
d="M487 325q0 -180 -65 -259t-171 -79q-49 0 -89 17t-73.5 55t-52 105.5t-18.5 160.5q0 176 65 254t168 78q106 0 171 -78t65 -254zM357 325q0 30 -1 50.5t-6.5 56.5t-15.5 59t-31.5 41t-51.5 18q-105 0 -105 -225q0 -25 0.5 -43t3.5 -48.5t10 -51.5t18 -42.5t29.5 -33
t43.5 -11.5q30 0 51.5 18t31.5 41t15.5 60t6.5 58t1 53z" />
    <glyph glyph-name="one" unicode="1" horiz-adv-x="505" 
d="M356 0h-129v420h-160v96q165 -2 184 128h105v-644z" />
    <glyph glyph-name="two" unicode="2" horiz-adv-x="505" 
d="M485 0h-467q-1 32 5.5 61.5t15 51t28.5 46t32.5 38t41 35.5t40 30t43.5 29q42 28 65.5 47t43 47.5t19.5 59.5q0 47 -25 73.5t-65 26.5q-59 0 -84.5 -44t-22.5 -102h-123q-6 112 56 185t174 73q91 0 154.5 -55t63.5 -146q0 -70 -32.5 -116t-91.5 -87q-14 -10 -46.5 -31.5
t-50 -33.5t-40 -33t-35.5 -42h301v-113z" />
    <glyph glyph-name="three" unicode="3" horiz-adv-x="505" 
d="M488 199q0 -98 -68.5 -155t-168.5 -57q-108 0 -172 61t-62 170h121q2 -57 30.5 -90t81.5 -33q44 0 73.5 28t29.5 74q0 23 -6 40.5t-19 27.5t-24 16t-32 8t-31 2.5t-33 0.5v92q31 -3 59 1.5t51.5 25t23.5 54.5q0 39 -26.5 62t-64.5 23q-46 0 -72 -31.5t-26 -81.5h-121
q3 99 62.5 159.5t156.5 60.5q83 0 148.5 -48.5t65.5 -130.5q0 -47 -23.5 -83t-67.5 -48v-2q52 -12 83 -52t31 -94z" />
    <glyph glyph-name="four" unicode="4" horiz-adv-x="505" 
d="M490 148h-84v-148h-123v148h-268v120l275 376h116v-389h84v-107zM283 255v219h-3l-159 -219h162z" />
    <glyph glyph-name="five" unicode="5" horiz-adv-x="505" 
d="M488 219q0 -99 -68 -165.5t-169 -66.5q-96 0 -164 53.5t-70 149.5h128q4 -42 33 -68.5t70 -26.5q50 0 80.5 37t30.5 87q0 52 -29.5 86.5t-81.5 34.5q-62 0 -96 -51h-116l56 355h359v-107h-264l-21 -146q51 47 127 47q90 0 142.5 -62t52.5 -157z" />
    <glyph glyph-name="six" unicode="6" horiz-adv-x="505" 
d="M487 223q0 -101 -62 -168.5t-161 -67.5q-69 0 -118.5 28.5t-75.5 78t-38 105.5t-12 122q0 63 14 120.5t42.5 107t78 79t114.5 29.5q84 0 140.5 -46.5t66.5 -129.5h-123q-6 32 -29 55t-56 23q-44 0 -73 -35t-39 -76.5t-11 -84.5q53 69 147 69q85 0 140 -58.5t55 -150.5z
M357 212q0 50 -25 86.5t-71 36.5q-49 0 -76 -35t-27 -85q0 -48 28.5 -84t74.5 -36q43 0 69.5 35.5t26.5 81.5z" />
    <glyph glyph-name="seven" unicode="7" horiz-adv-x="505" 
d="M469 644v-113q-94 -82 -150.5 -237t-57.5 -294h-137q8 142 62.5 277t145.5 246h-296v121h433z" />
    <glyph glyph-name="eight" unicode="8" horiz-adv-x="505" 
d="M494 190q0 -96 -71 -149.5t-169 -53.5q-102 0 -172.5 51.5t-70.5 149.5q0 62 31.5 103.5t88.5 55.5q-93 30 -93 134q0 82 65 129t149 47q57 0 100.5 -18t67.5 -45.5t35.5 -55.5t11.5 -54q0 -48 -24 -84t-69 -53q56 -14 88 -55t32 -102zM349 470q0 34 -22 61.5t-76 27.5
q-41 0 -68.5 -24t-27.5 -65t28.5 -63t68.5 -22q41 0 69 22.5t28 62.5zM364 194q0 45 -32 74t-78 29q-49 0 -82 -27t-33 -75q0 -50 33.5 -80t81.5 -30t79 30t31 79z" />
    <glyph glyph-name="nine" unicode="9" horiz-adv-x="505" 
d="M485 324q0 -63 -14 -121t-42.5 -107.5t-78 -79t-114.5 -29.5q-84 0 -140.5 46.5t-66.5 129.5h123q6 -32 29 -55t56 -23q44 0 73 35.5t39 77t11 84.5q-53 -70 -147 -70q-85 0 -140 59t-55 150q0 101 62 168.5t161 67.5q69 0 118.5 -28.5t75.5 -78t38 -105t12 -121.5z
M347 430q0 48 -28.5 84t-74.5 36q-43 0 -69.5 -35.5t-26.5 -82.5q0 -50 25 -86t71 -36q49 0 76 35t27 85z" />
    <glyph glyph-name="colon" unicode=":" horiz-adv-x="250" 
d="M194 326h-138v141h138v-141zM194 0h-138v142h138v-142z" />
    <glyph glyph-name="semicolon" unicode=";" horiz-adv-x="250" 
d="M194 326h-138v141h138v-141zM194 142v-142q0 -62 -40 -103t-102 -50v67q29 4 48 30t17 56h-61v142h138z" />
    <glyph glyph-name="less" unicode="&#x3c;" horiz-adv-x="505" 
d="M470 -7l-435 186v108l435 186v-106l-308 -134l308 -134v-106z" />
    <glyph glyph-name="equal" unicode="=" horiz-adv-x="505" 
d="M470 282h-435v99h435v-99zM470 85h-435v98h435v-98z" />
    <glyph glyph-name="greater" unicode="&#x3e;" horiz-adv-x="505" 
d="M470 179l-435 -186v106l307 134l-307 134v106l435 -186v-108z" />
    <glyph glyph-name="question" unicode="?" horiz-adv-x="505" 
d="M476 495q0 -48 -17 -84t-41 -56.5t-48.5 -38.5t-41.5 -41t-17 -52v-26h-123v42q0 39 15 69.5t36 50t42 36.5t36 39t15 49q0 40 -21.5 61t-58.5 21q-45 0 -68.5 -33.5t-21.5 -83.5h-133q0 100 60.5 162t158.5 62q115 0 171.5 -54t56.5 -123zM318 0h-144v142h144v-142z" />
    <glyph glyph-name="at" unicode="@" horiz-adv-x="737" 
d="M703 392q0 -67 -25 -121t-61.5 -84t-71 -45.5t-58.5 -15.5q-29 0 -47.5 14.5t-19.5 36.5q-35 -53 -102 -53q-58 0 -101 47t-43 111q0 92 56.5 163t144.5 71q33 0 63 -15.5t45 -48.5l14 50h76l-58 -238q-16 -60 8 -60q41 0 75 49t34 119q0 107 -70.5 167.5t-179.5 60.5
q-118 0 -189.5 -77t-71.5 -197q0 -130 74.5 -198.5t197.5 -68.5q125 0 198 75h77q-47 -71 -120.5 -110t-159.5 -39q-153 0 -254 92t-101 252q0 145 102.5 244t248.5 99q130 0 224.5 -78t94.5 -202zM453 350q0 34 -20.5 57t-50.5 23q-48 0 -81 -43.5t-33 -92.5q0 -36 20 -59
t52 -23q47 0 80 44t33 94z" />
    <glyph glyph-name="cent" unicode="&#xa2;" horiz-adv-x="505" 
d="M336 272h140q-8 -67 -48.5 -118t-109.5 -68v-113h-121v112q-79 19 -123.5 85t-44.5 163q0 87 43.5 151t124.5 82v111h121v-109q70 -15 108.5 -63.5t47.5 -120.5h-135q-3 31 -23.5 53t-57.5 22q-43 0 -68 -38t-25 -90q0 -61 23.5 -99t65.5 -38q35 0 56.5 23t25.5 55z" />
    <glyph glyph-name="sterling" unicode="&#xa3;" horiz-adv-x="561" 
d="M470 165l71 -116q-70 -62 -162 -62q-33 0 -82 17t-82 17q-52 0 -102 -39l-84 106q102 59 102 139q0 15 -8 39h-88v99h42q-27 60 -27 100q0 90 62.5 146t162.5 56q108 0 173.5 -56t60.5 -173h-137q4 49 -22.5 78t-73.5 29q-39 0 -62.5 -23.5t-23.5 -54.5q0 -14 4 -29.5
t8.5 -25t13 -26t10.5 -21.5h134v-99h-101q6 -12 6 -34q0 -75 -57 -116q33 10 63.5 10.5t59 -4.5t39.5 -5q55 0 100 48z" />
    <glyph glyph-name="currency" unicode="&#xa4;" horiz-adv-x="572" 
d="M6 112l100 99q-42 55 -42 131q0 79 42 128l-100 102l51 49l99 -99q57 40 131 40q81 0 129 -40l102 99l48 -49l-99 -102q41 -55 41 -128q0 -76 -41 -131l99 -99l-48 -52l-102 100q-52 -41 -129 -41q-73 0 -131 41l-99 -100zM130 340q0 -65 46 -111t111 -46t111 46t46 111
t-46 111t-111 46t-111 -46t-46 -111z" />
    <glyph glyph-name="yen" unicode="&#xa5;" horiz-adv-x="550" 
d="M564 657l-139 -247h97v-99h-151l-26 -47v-37h177v-100h-177v-127h-140v127h-177v100h177v37l-26 47h-151v99h95l-137 247h151l136 -251l140 251h151z" />
    <glyph glyph-name="FL00A9h" unicode="&#xa9;" horiz-adv-x="737" 
d="M721 329q0 -152 -104 -248t-249 -96t-249 96t-104 248t104 247.5t249 95.5t249 -95.5t104 -247.5zM628 329q0 116 -76 193.5t-184 77.5q-109 0 -184 -77.5t-75 -193.5q0 -117 74.5 -193.5t184.5 -76.5q109 0 184.5 77t75.5 193zM469 272h89q-10 -68 -59.5 -107
t-117.5 -39q-89 0 -143.5 58.5t-54.5 146.5q0 90 53 148t143 58q68 0 117.5 -38t58.5 -106h-86q-7 33 -31.5 51.5t-60.5 18.5q-48 0 -76.5 -37t-28.5 -94q0 -55 29 -94t78 -39q37 0 60.5 19.5t29.5 53.5z" />
    <glyph glyph-name="guillemotleft" unicode="&#xab;" horiz-adv-x="403" 
d="M365 73l-142 115v124l142 116v-113l-82 -64l82 -67v-111zM181 73l-142 115v124l142 116v-113l-82 -64l82 -67v-111z" />
    <glyph glyph-name="logicalnot" unicode="&#xac;" horiz-adv-x="505" 
d="M370 81v102h-341v99h447v-201h-106z" />
    <glyph glyph-name="minus" unicode="&#xad;" horiz-adv-x="505" 
d="M470 183h-435v99h435v-99z" />
    <glyph glyph-name="registered" unicode="&#xae;" horiz-adv-x="737" 
d="M721 329q0 -152 -104 -248t-249 -96t-249 96t-104 248t104 247.5t249 95.5t249 -95.5t104 -247.5zM628 329q0 116 -76 193.5t-184 77.5q-109 0 -184 -77.5t-75 -193.5q0 -117 74.5 -193.5t184.5 -76.5q109 0 184.5 77t75.5 193zM529 137h-80l-93 164h-49v-164h-75v386
h145q75 0 112.5 -27t37.5 -87q0 -96 -100 -103zM451 416q0 47 -79 47h-65v-102h68q37 0 56.5 11t19.5 44z" />
    <glyph glyph-name="degree" unicode="&#xb0;" horiz-adv-x="368" 
d="M84 485q0 -41 29 -70t70 -29t70.5 29t29.5 70t-29.5 70.5t-70.5 29.5t-70 -29.5t-29 -70.5zM45 485q0 58 40 98.5t98 40.5t98.5 -40.5t40.5 -98.5t-40.5 -98t-98.5 -40t-98 40t-40 98z" />
    <glyph glyph-name="paragraph" unicode="&#xb6;" horiz-adv-x="495" 
d="M428 -166h-42v923h-99v-923h-37v548q-250 0 -250 203q0 102 62 151t171 49h265v-28h-70v-923z" />
    <glyph glyph-name="middot" unicode="&#xb7;" horiz-adv-x="321" 
d="M162 494q29 0 48.5 -20t19.5 -47q0 -29 -20.5 -50t-47.5 -21q-31 0 -50.5 19.5t-19.5 51.5q0 29 19.5 48t50.5 19z" />
    <glyph glyph-name="guillemotright" unicode="&#xbb;" horiz-adv-x="403" 
d="M364 188l-142 -115v111l82 67l-82 64v113l142 -116v-124zM180 188l-142 -115v111l82 67l-82 64v113l142 -116v-124z" />
    <glyph glyph-name="onequarter" unicode="&#xbc;" horiz-adv-x="822" 
d="M777 75h-50v-75h-116v75h-174v88l195 240h95v-240h50v-88zM696 671l-466 -685h-106l465 685h107zM244 269h-114v247h-85v89q43 0 64 11t21 28v27h114v-402zM611 163v91l-74 -91h74z" />
    <glyph glyph-name="onehalf" unicode="&#xbd;" horiz-adv-x="822" 
d="M785 0h-325q-5 48 1.5 81t26.5 54.5t41 35t56 30.5q17 8 25 12q17 9 26.5 15.5t18.5 18t9 24.5q0 15 -9 27t-30 12q-27 0 -37.5 -21.5t-4.5 -47.5h-111q-10 69 29.5 116.5t123.5 47.5q78 0 117 -34.5t39 -95.5q0 -48 -26.5 -76t-82.5 -57q-1 0 -22 -11t-34.5 -19.5
t-18.5 -16.5h188v-95zM660 671l-466 -685h-106l464 685h108zM237 269h-114v247h-85v89q43 0 64 11t21 28v27h114v-402z" />
    <glyph glyph-name="threequarters" unicode="&#xbe;" horiz-adv-x="822" 
d="M791 75h-50v-75h-116v75h-174v88l195 240h95v-240h50v-88zM731 671l-466 -685h-106l465 685h107zM359 395q0 -59 -45.5 -95t-116.5 -36q-76 0 -125.5 35.5t-46.5 114.5h116q-4 -32 12 -46t41 -14q23 0 36 11.5t13 29.5q0 41 -71 37v80q31 -3 46.5 6.5t15.5 25.5
q0 15 -10.5 25.5t-32.5 10.5q-23 0 -35 -15.5t-10 -35.5h-114q-6 59 37 100.5t124 41.5q73 0 116 -33t43 -88q0 -54 -58 -73q32 -8 48.5 -31.5t16.5 -50.5zM625 163v85l-68 -85h68z" />
    <glyph glyph-name="uni0E01" unicode="&#xe01;" horiz-adv-x="594" 
d="M538 0h-136v364q0 40 -30.5 64.5t-78.5 24.5q-70 0 -100 -40v-413h-137v453q87 115 241 115q106 0 173.5 -50t67.5 -144v-374z" />
    <glyph glyph-name="uni0E02" unicode="&#xe02;" horiz-adv-x="548" 
d="M492 558v-365q0 -87 -63.5 -145t-159.5 -58q-102 0 -171.5 65.5t-69.5 164.5q0 57 32.5 105.5t78.5 72.5l-79 92l113 78l130 -168q-141 -66 -141 -180q0 -45 28.5 -80t78.5 -35q38 0 62.5 24.5t24.5 57.5v371h136z" />
    <glyph glyph-name="uni0E03" unicode="&#xe03;" horiz-adv-x="555" 
d="M499 558v-365q0 -87 -63.5 -145t-159.5 -58q-103 0 -172 65.5t-69 164.5q0 57 32.5 105.5t78.5 72.5v54l-50 -36q-37 46 -97 65l69 84q29 -16 45 -38l39 31h123v-176q-106 -63 -106 -162q0 -45 28.5 -80t78.5 -35q38 0 62.5 24.5t24.5 57.5v371h136z" />
    <glyph glyph-name="uni0E04" unicode="&#xe04;" horiz-adv-x="608" 
d="M552 0h-136v375q0 36 -30.5 57t-81.5 21q-50 0 -80.5 -21t-30.5 -57v-46h153v-111h-153v-218h-137v367q0 88 70 144.5t178 56.5q107 0 177.5 -57t70.5 -144v-367z" />
    <glyph glyph-name="uni0E05" unicode="&#xe05;" horiz-adv-x="625" 
d="M569 0h-137v377q0 52 -46 67l-69 -65l-78 65q-46 -15 -46 -67v-48h170v-111h-170v-218h-137v374q0 78 47 131.5t140 62.5l69 -57l72 57q88 -8 136.5 -62t48.5 -132v-374z" />
    <glyph glyph-name="uni0E06" unicode="&#xe06;" horiz-adv-x="603" 
d="M547 558v-392q0 -83 -53.5 -129.5t-123.5 -46.5q-55 0 -101 24t-70 56v-70h-136v306q0 19 12.5 35t28 25t28 22.5t12.5 29.5v34l-51 -36q-37 46 -97 65l70 84q28 -15 44 -38l39 31h127v-146q0 -24 -19 -41.5t-38.5 -34t-19.5 -37.5v-101q0 -38 38.5 -67t80.5 -29
q40 0 66 23t26 58v375h137z" />
    <glyph glyph-name="uni0E07" unicode="&#xe07;" horiz-adv-x="552" 
d="M525 273q0 -144 -107.5 -220.5t-291.5 -53.5l-132 559h137l102 -441q75 -2 114 42t39 114q0 81 -41.5 124t-143.5 38v124q167 12 245.5 -65.5t78.5 -220.5z" />
    <glyph glyph-name="uni0E08" unicode="&#xe08;" horiz-adv-x="564" 
d="M536 290q0 -66 -24 -122t-69 -97t-115 -61t-156 -13l-51 235h-61v111h173l46 -226q50 10 85.5 62t35.5 111q0 67 -43.5 114t-119.5 47q-97 0 -159 -77l-82 85q60 59 123 84t143 25q123 0 198.5 -78t75.5 -200z" />
    <glyph glyph-name="uni0E09" unicode="&#xe09;" horiz-adv-x="573" 
d="M537 0h-153v70q-19 -28 -57 -54t-94 -26q-72 0 -121 42.5t-49 129.5v46h-43v111h175v-142q0 -34 20 -53t53 -19q45 0 80.5 31t35.5 66v154q0 43 -29.5 70t-78.5 27q-39 0 -70.5 -19.5t-43.5 -59.5h-129q15 95 87 144.5t162 49.5q98 0 167 -52.5t69 -140.5v-319z" />
    <glyph glyph-name="uni0E0A" unicode="&#xe0a;" horiz-adv-x="551" 
d="M522 222q0 -101 -70 -165.5t-197 -64.5q-53 0 -102.5 10t-72.5 20l-24 9v527h137v-446q28 -7 62 -7q58 0 94 36t36 86q0 144 -167 176l168 162l127 -52l-106 -95q115 -64 115 -196z" />
    <glyph glyph-name="uni0E0B" unicode="&#xe0b;" horiz-adv-x="571" 
d="M543 222q0 -100 -70.5 -165t-196.5 -65q-53 0 -102.5 10t-73.5 20l-23 9v277q0 29 28 57.5t28 52.5v34l-51 -36q-37 46 -97 65l69 84q29 -15 45 -38l39 31h123v-138q0 -33 -24 -61.5t-24 -52.5v-194q25 -7 63 -7q58 1 94 36.5t36 85.5q0 61 -30.5 105t-109.5 71l140 162
l128 -52l-99 -100q108 -63 108 -191z" />
    <glyph glyph-name="uni0E0C" unicode="&#xe0c;" horiz-adv-x="928" 
d="M872 558v-393q0 -84 -46.5 -129.5t-116.5 -45.5q-54 0 -98.5 23t-72.5 57v-70h-136v364q0 40 -30.5 64.5t-78.5 24.5q-70 0 -100 -40v-301h86v-112h-223v453q87 115 241 115q106 0 173.5 -50t67.5 -144v-166q0 -48 35.5 -77t77.5 -29q39 0 61.5 21.5t22.5 60.5v374h137z
" />
    <glyph glyph-name="uni0E0D" unicode="&#xe0d;" horiz-adv-x="929" 
d="M873 558v-530q0 -105 -70 -168.5t-192 -63.5q-124 0 -212 51l54 104q68 -43 144 -43q67 0 105.5 32t38.5 89q-52 -39 -138 -39q-94 0 -147.5 45.5t-53.5 133.5v195q0 40 -30.5 64.5t-78.5 24.5q-70 0 -100 -40v-301h86v-112h-223v453q87 115 241 115q106 0 173.5 -50
t67.5 -144v-193q0 -39 26.5 -59t70.5 -20q47 0 74.5 25t27.5 63v368h136z" />
    <glyph glyph-name="uni0E0E" unicode="&#xe0e;" horiz-adv-x="608" 
d="M552 -209h-125l-94 75l-97 -75h-222v111h192l132 88l78 -60v434q0 40 -30.5 64.5t-78.5 24.5q-69 0 -101 -40v-413h-192v112h56v341q87 115 241 115q106 0 173.5 -50t67.5 -144v-583z" />
    <glyph glyph-name="uni0E0F" unicode="&#xe0f;" horiz-adv-x="608" 
d="M552 -209h-131l-54 50l-70 -73l-70 73l-53 -50h-160v111h135l87 73l61 -67l62 67l57 -49v438q0 40 -30.5 64.5t-78.5 24.5q-69 0 -101 -40v-413h-192v112h56v341q87 115 241 115q106 0 173.5 -50t67.5 -144v-583z" />
    <glyph glyph-name="uni0E10" unicode="&#xe10;" horiz-adv-x="568" 
d="M550 557l-72 -88q58 -75 58 -179q0 -66 -24 -122t-69 -97t-115 -61t-156 -13l-51 235h-61v111h173l46 -226q50 10 85.5 62t35.5 111q0 67 -43.5 114t-119.5 47q-97 0 -159 -77l-82 85q60 59 123 84t143 25q66 0 115 -23l43 62zM538 -209h-133l-49 46l-63 -67l-70 68
l-50 -47h-155v111h141l71 58l62 -59l61 60l50 -43v54l-21 39h156v-220z" />
    <glyph glyph-name="uni0E11" unicode="&#xe11;" horiz-adv-x="628" 
d="M572 0h-137v399q0 26 -10 26l-199 -425h-149v308q0 29 30.5 57.5t30.5 52.5v34l-50 -36q-38 46 -98 65l70 84q26 -14 45 -38l39 31h122v-138q0 -34 -27 -63t-27 -51v-34l-7 -93h3q29 90 54 142l116 240q100 2 147 -34t47 -129v-398z" />
    <glyph glyph-name="uni0E12" unicode="&#xe12;" horiz-adv-x="957" 
d="M900 558v-393q0 -84 -46.5 -129.5t-116.5 -45.5q-54 0 -98.5 23t-72.5 57v-70h-136v378q0 45 -35 56l-73 -69l-81 67q-27 -21 -50.5 -66t-24.5 -98q-1 -65 22 -107t67 -42q34 0 64 30l79 -90q-61 -66 -147 -66q-103 0 -163.5 74.5t-59.5 200.5q1 107 64.5 191t154.5 106
l71 -57l59 51q96 -7 142.5 -57.5t46.5 -133.5v-160q0 -48 35.5 -77t77.5 -29q39 0 61.5 21.5t22.5 60.5v374h137z" />
    <glyph glyph-name="uni0E13" unicode="&#xe13;" horiz-adv-x="928" 
d="M872 0h-137v70q-27 -34 -71.5 -57t-98.5 -23q-70 0 -116.5 45.5t-46.5 129.5v199q0 40 -30.5 64.5t-78.5 24.5q-70 0 -100 -40v-301h86v-112h-223v453q87 115 241 115q106 0 173.5 -50t67.5 -144v-190q0 -39 22.5 -60.5t61.5 -21.5q42 0 77.5 29t35.5 77v350h137v-558z
" />
    <glyph glyph-name="uni0E14" unicode="&#xe14;" horiz-adv-x="612" 
d="M557 0h-137v410q-8 14 -36 26t-62 12q-66 0 -110 -55.5t-46 -124.5q-2 -64 23 -106.5t72 -42.5q38 0 68 27l73 -94q-31 -29 -62.5 -44t-81.5 -15q-112 0 -171.5 73.5t-58.5 201.5q1 123 85 211.5t204 88.5q89 0 150.5 -36.5t89.5 -87.5v-444z" />
    <glyph glyph-name="uni0E15" unicode="&#xe15;" horiz-adv-x="622" 
d="M566 0h-136v378q0 45 -35 56l-73 -69l-81 67q-27 -21 -50.5 -66t-24.5 -98q-1 -65 22 -107t67 -42q34 0 64 30l79 -90q-61 -66 -147 -66q-103 0 -163.5 74.5t-59.5 200.5q1 107 64.5 191t154.5 106l71 -57l59 51q96 -7 142.5 -57.5t46.5 -133.5v-368z" />
    <glyph glyph-name="uni0E16" unicode="&#xe16;" horiz-adv-x="594" 
d="M538 0h-136v364q0 40 -30.5 64.5t-78.5 24.5q-70 0 -100 -40v-301h86v-112h-223v453q87 115 241 115q106 0 173.5 -50t67.5 -144v-374z" />
    <glyph glyph-name="uni0E17" unicode="&#xe17;" horiz-adv-x="596" 
d="M540 0h-137v375q0 35 -26 58t-66 23q-42 0 -80 -29t-38 -67v-360h-137v558h137v-70q23 32 69 56t101 24q70 0 123.5 -46.5t53.5 -129.5v-392z" />
    <glyph glyph-name="uni0E18" unicode="&#xe18;" horiz-adv-x="543" 
d="M508 177q0 -93 -72 -139t-186 -46q-54 0 -104 9t-73 19l-23 9v192l134 34v-143q25 -7 66 -7q48 0 84.5 20.5t36.5 58.5q0 64 -112 77q-69 7 -113.5 19.5t-77.5 44t-33 81.5q0 69 70.5 114.5t165.5 45.5q90 0 156 -46.5t79 -124.5h-139q-6 26 -37 42t-72 16
q-37 0 -61 -11.5t-24 -27.5q0 -28 117 -43q47 -6 81 -16t67.5 -30.5t51.5 -57.5t18 -90z" />
    <glyph glyph-name="uni0E19" unicode="&#xe19;" horiz-adv-x="596" 
d="M540 0h-137v70q-24 -32 -69.5 -56t-100.5 -24q-71 0 -124 46.5t-53 129.5v392h137v-375q0 -35 25.5 -58t66.5 -23q42 0 80 29t38 67v360h137v-558z" />
    <glyph glyph-name="uni0E1A" unicode="&#xe1a;" horiz-adv-x="594" 
d="M538 558v-367q0 -89 -65 -145t-176 -56t-176 56t-65 145v367h137v-362q0 -43 29 -67t75 -24t75.5 24.5t29.5 66.5v362h136z" />
    <glyph glyph-name="uni0E1B" unicode="&#xe1b;" horiz-adv-x="594" 
d="M538 703v-512q0 -89 -65 -145t-176 -56t-176 56t-65 145v367h137v-362q0 -43 29 -67t75 -24t75.5 24.5t29.5 66.5v507h136z" />
    <glyph glyph-name="uni0E1C" unicode="&#xe1c;" horiz-adv-x="748" 
d="M746 558l-156 -558h-96l-122 353l-120 -353h-94l-158 558h227v-110h-68l57 -225l116 335h82l119 -335l91 335h122z" />
    <glyph glyph-name="uni0E1D" unicode="&#xe1d;" horiz-adv-x="748" 
d="M785 703l-196 -703h-95l-122 352l-120 -352h-94l-158 558h227v-110h-68l57 -225l116 335h82l119 -335l130 480h122z" />
    <glyph glyph-name="uni0E1E" unicode="&#xe1e;" horiz-adv-x="748" 
d="M746 558l-156 -558h-96l-122 353l-120 -353h-94l-158 558h130l86 -335l116 335h82l119 -335l91 335h122z" />
    <glyph glyph-name="uni0E1F" unicode="&#xe1f;" horiz-adv-x="748" 
d="M787 703l-198 -703h-95l-122 352l-120 -352h-94l-158 558h130l86 -335l116 335h82l119 -335l131 480h123z" />
    <glyph glyph-name="uni0E20" unicode="&#xe20;" horiz-adv-x="608" 
d="M552 0h-136v364q0 40 -30.5 64.5t-78.5 24.5q-69 0 -101 -40v-413h-192v112h56v341q87 115 241 115q106 0 173.5 -50t67.5 -144v-374z" />
    <glyph glyph-name="uni0E21" unicode="&#xe21;" horiz-adv-x="596" 
d="M540 558v-392q0 -83 -53.5 -129.5t-123.5 -46.5q-55 0 -101 24t-69 56v-70h-137v558h137v-360q0 -38 38 -67t80 -29q40 0 66 23t26 58v375h137z" />
    <glyph glyph-name="uni0E22" unicode="&#xe22;" horiz-adv-x="586" 
d="M530 558v-466q-3 -4 -9.5 -11t-28.5 -24t-47.5 -30t-67.5 -24t-87 -11q-124 0 -193 52t-69 135q0 48 29.5 81t73.5 46q-39 9 -65.5 35.5t-26.5 68.5q0 63 55.5 109t135.5 46q61 0 110 -20v-113q-35 21 -82 21q-36 0 -57 -12.5t-21 -33.5q0 -30 51 -41.5t109 2.5v-118h-61
q-49 0 -80.5 -18.5t-31.5 -51.5q0 -35 35 -55t88 -20q64 0 103 29v424h137z" />
    <glyph glyph-name="uni0E23" unicode="&#xe23;" horiz-adv-x="548" 
d="M519 391h-137q-7 27 -38.5 44.5t-72.5 17.5t-68 -16t-27 -37q0 -12 10.5 -21t34 -14t36 -7t39.5 -5q38 -4 63.5 -8.5t58 -16t52 -28t33 -44.5t13.5 -66q0 -91 -72.5 -145.5t-174.5 -54.5q-66 0 -120.5 22t-90 70t-36.5 115h134q3 -45 37.5 -67.5t81.5 -22.5q40 0 72 19
t32 48q0 46 -107 59q-51 5 -88.5 14t-72.5 25.5t-54 44.5t-19 67q0 79 68 131.5t162 52.5q98 0 165.5 -43.5t85.5 -133.5z" />
    <glyph glyph-name="uni0E24" unicode="&#xe24;" horiz-adv-x="594" 
d="M538 -209h-136v573q0 40 -30.5 64.5t-78.5 24.5q-70 0 -100 -40v-301h86v-112h-223v453q87 115 241 115q106 0 173.5 -50t67.5 -144v-583z" />
    <glyph glyph-name="uni0E25" unicode="&#xe25;" horiz-adv-x="604" 
d="M548 0h-136v184q-18 25 -55.5 40t-80.5 15q-48 0 -78.5 -17.5t-30.5 -48.5q0 -24 20 -38t52 -14q38 0 67 20l71 -98q-61 -50 -154 -50q-89 0 -142 52t-53 131q0 81 64.5 133t180.5 52q87 0 139 -26v70q-11 21 -41 34.5t-71 13.5q-42 0 -73.5 -15t-42.5 -46h-145
q11 82 83.5 129t177.5 47q101 0 167 -40t81 -97v-431z" />
    <glyph glyph-name="uni0E26" unicode="&#xe26;" horiz-adv-x="608" 
d="M552 -209h-136v573q0 40 -30.5 64.5t-78.5 24.5q-69 0 -101 -40v-413h-192v112h56v341q87 115 241 115q106 0 173.5 -50t67.5 -144v-583z" />
    <glyph glyph-name="uni0E27" unicode="&#xe27;" horiz-adv-x="545" 
d="M518 279q0 -132 -65.5 -210.5t-181.5 -78.5q-100 0 -163.5 58t-79.5 168h134q28 -106 109 -106q55 0 82.5 49t27.5 120q0 74 -27 122t-82 48q-85 0 -109 -107h-135q16 108 79.5 167t163.5 59q116 0 181.5 -78.5t65.5 -210.5z" />
    <glyph glyph-name="uni0E28" unicode="&#xe28;" horiz-adv-x="608" 
d="M559 554l-51 -69q44 -50 44 -118v-367h-136v375q0 36 -30.5 57t-81.5 21q-50 0 -80.5 -21t-30.5 -57v-46h153v-111h-153v-218h-137v367q0 88 70 144.5t178 56.5q56 0 95 -14l29 53z" />
    <glyph glyph-name="uni0E29" unicode="&#xe29;" horiz-adv-x="608" 
d="M600 247h-62v-56q0 -89 -65 -145t-176 -56t-176 56t-65 145v367h137v-362q0 -43 29 -67t75 -24t75.5 24.5t29.5 66.5v51h-138v125l55 -13h83v199h136v-199h62v-112z" />
    <glyph glyph-name="uni0E2A" unicode="&#xe2a;" horiz-adv-x="607" 
d="M562 552l-47 -62q25 -29 33 -59v-431h-136v184q-18 25 -55.5 40t-80.5 15q-48 0 -78.5 -17.5t-30.5 -48.5q0 -24 20 -38t52 -14q38 0 67 20l71 -98q-61 -50 -154 -50q-89 0 -142 52t-53 131q0 81 64.5 133t180.5 52q87 0 139 -26v70q-11 21 -41 34.5t-71 13.5
q-42 0 -73.5 -15t-42.5 -46h-145q11 82 83.5 129t177.5 47q49 0 103 -14l28 53z" />
    <glyph glyph-name="uni0E2B" unicode="&#xe2b;" horiz-adv-x="591" 
d="M537 530l-130 -107q57 -13 93 -50t36 -95v-278h-133v240q0 97 -89 107l-124 -103v-244h-134v558h134v-163l210 170z" />
    <glyph glyph-name="uni0E2C" unicode="&#xe2c;" horiz-adv-x="748" 
d="M776 656l-28 -99q-17 -57 -87 -79q25 -14 34.5 -42t0.5 -61l-106 -375h-100l-118 342l-115 -342h-99l-158 558h135l85 -318l109 318h88l113 -321l36 145q7 29 -5 46.5t-38 17.5h-32v112h52q37 0 53 8t23 30l19 60h138z" />
    <glyph glyph-name="uni0E2D" unicode="&#xe2d;" horiz-adv-x="644" 
d="M614 279q0 -126 -81.5 -207.5t-211.5 -81.5q-131 0 -212 81t-81 208q0 25 3 42h281v-112h-132q35 -90 141 -90q69 0 112 45t43 115t-42 114.5t-113 44.5q-94 0 -134 -75h-148q35 103 110 154t172 51q130 0 211.5 -81.5t81.5 -207.5z" />
    <glyph glyph-name="uni0E2E" unicode="&#xe2e;" horiz-adv-x="644" 
d="M614 279q0 -126 -81.5 -207.5t-211.5 -81.5q-131 0 -212 81t-81 208q0 25 3 42h281v-112h-132q35 -90 141 -90q69 0 112 45t43 115t-42 114.5t-113 44.5q-94 0 -134 -75h-148q35 103 110 154t172 51q65 0 116 -21l44 60l131 -49q-67 -85 -68 -85q70 -76 70 -194z" />
    <glyph glyph-name="uni0E2F" unicode="&#xe2f;" horiz-adv-x="557" 
d="M501 0h-136v311q-67 -47 -147 -47q-97 0 -150 45t-53 107q0 64 53.5 106.5t133.5 42.5q58 0 113 -24v-104q-37 18 -90 18q-33 0 -53 -11t-20 -28q0 -18 22.5 -28.5t51.5 -10.5q84 0 139 58v123h136v-558z" />
    <glyph glyph-name="uni0E30" unicode="&#xe30;" horiz-adv-x="287" 
d="M259 333h-224v155h137v-57h87v-98zM259 70h-224v155h137v-58h87v-97z" />
    <glyph glyph-name="uni0E31" unicode="&#xe31;" 
d="M112 628h-440v167h137v-70h303v-97z" />
    <glyph glyph-name="uni0E32" unicode="&#xe32;" horiz-adv-x="424" 
d="M367 0h-130v343q0 48 -28.5 74.5t-75.5 26.5q-57 0 -111 -34v126q65 32 137 32q101 0 154.5 -59.5t53.5 -152.5v-356z" />
    <glyph glyph-name="uni0E33" unicode="&#xe33;" horiz-adv-x="423" 
d="M367 0h-130v343q0 48 -28.5 74.5t-75.5 26.5q-57 0 -111 -34v126q65 32 137 32q101 0 154.5 -59.5t53.5 -152.5v-356zM-25 713q0 -39 -28 -65.5t-71 -26.5t-71 26.5t-28 65.5t28.5 65.5t70.5 26.5t70.5 -26.5t28.5 -65.5zM-86 713q0 16 -11.5 25.5t-26.5 9.5
q-16 0 -27 -9.5t-11 -25.5t11 -25.5t27 -9.5q15 0 26.5 9.5t11.5 25.5z" />
    <glyph glyph-name="uni0E34" unicode="&#xe34;" 
d="M-56 628h-460v97h460v-97z" />
    <glyph glyph-name="uni0E35" unicode="&#xe35;" 
d="M-56 628h-460v97h323v70h137v-167z" />
    <glyph glyph-name="uni0E36" unicode="&#xe36;" 
d="M-31 716q0 -37 -26.5 -62.5t-66.5 -25.5h-392v97h300q4 35 29 57.5t63 22.5q40 0 66.5 -26t26.5 -63zM-89 716q0 14 -10.5 24.5t-24.5 10.5q-15 0 -25 -10.5t-10 -24.5q0 -15 10 -25t25 -10q14 0 24.5 10t10.5 25z" />
    <glyph glyph-name="uni0E37" unicode="&#xe37;" 
d="M-56 628h-460v97h208v70h74v-70h41v70h137v-167z" />
    <glyph glyph-name="uni0E38" unicode="&#xe38;" 
d="M-56 -244h-137v104h-55v84h192v-188z" />
    <glyph glyph-name="uni0E39" unicode="&#xe39;" 
d="M-56 -56v-97q0 -47 -48 -72.5t-112 -25.5q-40 0 -83.5 14t-67.5 39v58h-43v84h162v-96q14 -11 34.5 -7t20.5 22v81h137z" />
    <glyph glyph-name="uni0E3A" unicode="&#xe3a;" 
d="M-33 -140q0 -36 -26.5 -59.5t-64.5 -23.5t-64.5 23.5t-26.5 59.5t26.5 60t64.5 24t64.5 -24t26.5 -60z" />
    <glyph glyph-name="uni0E3F" unicode="&#xe3f;" horiz-adv-x="642" 
d="M607 191q0 -95 -65.5 -143t-162.5 -48h-33v-93h-53v93h-230v657h230v87h53v-87h18q104 0 159 -37.5t55 -125.5q0 -92 -88 -137q58 -16 87.5 -60t29.5 -106zM438 470q0 75 -92 75v-154h6q86 0 86 79zM293 391v154h-88v-154h88zM466 199q0 94 -103 94h-17v-180h17
q103 0 103 86zM293 113v180h-88v-180h88z" />
    <glyph glyph-name="uni0E40" unicode="&#xe40;" horiz-adv-x="276" 
d="M206 0h-136v558h136v-558z" />
    <glyph glyph-name="uni0E41" unicode="&#xe41;" horiz-adv-x="511" 
d="M441 0h-137v558h137v-558zM206 0h-136v558h136v-558z" />
    <glyph glyph-name="uni0E42" unicode="&#xe42;" horiz-adv-x="304" 
d="M328 739h-144q-39 0 -39 -13q0 -4 18.5 -16t37.5 -37.5t19 -62.5v-610h-136v605q0 25 -14 46t-30 33t-30 31t-14 42q0 43 36.5 65t97.5 22h198v-105z" />
    <glyph glyph-name="uni0E43" unicode="&#xe43;" horiz-adv-x="304" 
d="M287 731q0 -32 -33.5 -66t-33.5 -67v-598h-136v612q0 25 10.5 43.5t23.5 28t23.5 22.5t10.5 28t-11 27t-29 12q-21 0 -36 -17.5t-15 -49.5h-121q0 76 50.5 121t125.5 45q77 0 124 -41.5t47 -99.5z" />
    <glyph glyph-name="uni0E44" unicode="&#xe44;" horiz-adv-x="304" 
d="M162 857l142 -146q-84 -62 -84 -142v-569h-136v557q0 76 79 150l-18 18l-82 -72l-147 131l78 81l84 -77z" />
    <glyph glyph-name="uni0E45" unicode="&#xe45;" horiz-adv-x="438" 
d="M381 -209h-130v552q0 48 -33.5 74.5t-84.5 26.5q-57 0 -111 -34v126q65 32 137 32q103 0 162.5 -60.5t59.5 -151.5v-565z" />
    <glyph glyph-name="uni0E46" unicode="&#xe46;" horiz-adv-x="572" 
d="M515 -209h-137v609q0 48 -31 52l-75 -60l-85 60q-31 -4 -31 -52v-28h92v-110h-226v126q0 86 46 131.5t131 45.5l69 -53l70 53q87 0 132 -46.5t45 -133.5v-594z" />
    <glyph glyph-name="uni0E47" unicode="&#xe47;" 
d="M-56 764h-256q-32 0 -50.5 -16t-18.5 -38h50l74 41l71 -41h87v-82h-94l-64 37l-67 -37h-152v60q0 64 41.5 105t117.5 41h261v-70z" />
    <glyph glyph-name="uni0E48" unicode="&#xe48;" 
d="M-56 837h-137v139h137v-139z" />
    <glyph glyph-name="uni0E49" unicode="&#xe49;" 
d="M21 837h-265v61q0 14 -13 14h-23v76h75q71 0 71 -60v-3h155v-88z" />
    <glyph glyph-name="uni0E4A" unicode="&#xe4a;" 
d="M107 837h-175v64q0 5 -2 9t-4 6l-3 1l-53 -44l-61 44q-8 -5 -8 -16v-39l12 -25h-117v67q0 84 95 84h30l49 -34l45 34h31q40 0 65 -18.5t25 -57.5v-8h71v-67z" />
    <glyph glyph-name="uni0E4B" unicode="&#xe4b;" 
d="M-8 890h-63v-53h-109v53h-63v77h63v53h109v-53h63v-77z" />
    <glyph glyph-name="uni0E4C" unicode="&#xe4c;" 
d="M-11 826h-41q-34 0 -34 -29v-16h-123v39q0 45 27 66.5t72 21.5h99v-82z" />
    <glyph glyph-name="uni0E4D" unicode="&#xe4d;" 
d="M-25 713q0 -39 -28 -65.5t-71 -26.5t-71 26.5t-28 65.5t28.5 65.5t70.5 26.5t70.5 -26.5t28.5 -65.5zM-86 713q0 16 -11.5 25.5t-26.5 9.5q-16 0 -27 -9.5t-11 -25.5t11 -25.5t27 -9.5q15 0 26.5 9.5t11.5 25.5z" />
    <glyph glyph-name="uni0E4E" unicode="&#xe4e;" 
d="M-17 989v-81q-60 18 -125 6t-65 -45q0 -27 55 -21v-72q-44 4 -94 -10t-50 -39q0 -21 36 -22t71 19l39 -67q-47 -29 -114 -29q-54 0 -89.5 25t-35.5 67q0 39 36.5 66.5t87.5 32.5q-37 13 -37 51q0 64 79.5 101t205.5 18z" />
    <glyph glyph-name="uni0E4F" unicode="&#xe4f;" horiz-adv-x="670" 
d="M621 279q0 -118 -84 -202t-202 -84q-119 0 -202.5 83.5t-83.5 202.5t83.5 202.5t202.5 83.5q118 0 202 -84t84 -202zM579 279q0 101 -71.5 172.5t-172.5 71.5t-172.5 -71.5t-71.5 -172.5t71.5 -172.5t172.5 -71.5t172.5 71.5t71.5 172.5zM509 279q0 -72 -51 -123
t-123 -51t-123.5 51t-51.5 123t51.5 123t123.5 51t123 -51t51 -123z" />
    <glyph glyph-name="uni0E50" unicode="&#xe50;" horiz-adv-x="569" 
d="M534 215q0 -93 -69 -159t-180 -66q-110 0 -180 66.5t-70 158.5t70 158t180 66t179.5 -66t69.5 -158zM400 215q0 43 -33 74.5t-84 31.5q-50 0 -83 -31.5t-33 -74.5t33 -75.5t83 -32.5t83.5 32.5t33.5 75.5z" />
    <glyph glyph-name="uni0E51" unicode="&#xe51;" horiz-adv-x="607" 
d="M572 215q0 -113 -91 -191t-223 -98l-52 82q105 12 170 63t65 124q0 58 -39 94t-102 36q-56 0 -94.5 -31t-38.5 -77q0 -35 20 -47q-3 43 28.5 72.5t77.5 29.5q44 0 75.5 -28.5t31.5 -67.5q0 -55 -45 -93t-119 -38q-82 0 -141.5 51t-59.5 130q0 94 78.5 153.5t185.5 59.5
q116 0 194.5 -62t78.5 -162zM331 174q0 14 -11 23t-27 9t-27 -9t-11 -23t11 -23.5t27 -9.5t27 9.5t11 23.5z" />
    <glyph glyph-name="uni0E52" unicode="&#xe52;" horiz-adv-x="791" 
d="M734 0h-540q-66 0 -102 27.5t-36 78.5v307q0 29 -22 62t-62 45l106 80q108 -64 108 -175v-265q0 -55 61 -55h354v184q0 37 -28 46l-83 -69l-97 69q-13 0 -23 -8.5t-10 -18.5q37 -4 57.5 -29.5t20.5 -60.5q0 -39 -30.5 -65.5t-75.5 -26.5q-44 0 -74.5 26.5t-30.5 65.5v67
q0 77 54 119t135 35l69 -53l72 53q81 4 129 -40.5t48 -113.5v-285zM367 219q0 14 -9.5 22.5t-24.5 8.5q-14 0 -23.5 -9.5t-9.5 -21.5q0 -14 9.5 -22.5t23.5 -8.5q15 0 24.5 8t9.5 23z" />
    <glyph glyph-name="uni0E53" unicode="&#xe53;" horiz-adv-x="649" 
d="M593 0h-134v248q0 53 -46 67l-84 -64l-92 64q-46 -14 -46 -67v-28q46 -4 77.5 -36t31.5 -75q0 -48 -36 -82t-87 -34q-53 0 -87 34t-34 82v150q0 76 46 123.5t139 56.5l84 -57l85 57q90 -8 136.5 -55.5t46.5 -124.5v-259zM222 109q0 17 -12.5 28t-32.5 11q-17 0 -28 -11
t-11 -28t11 -28t28 -11q20 0 32.5 11t12.5 28z" />
    <glyph glyph-name="uni0E54" unicode="&#xe54;" horiz-adv-x="654" 
d="M650 73l-77 -93q-67 38 -120 38q-21 0 -74 -11t-100 -11q-101 0 -171.5 56t-72.5 157q-1 101 69 163.5t179 62.5h159q64 0 64 140h133q2 -253 -165 -253h-178q-53 0 -91.5 -31t-37.5 -82q1 -45 36 -71t82 -26q40 0 58 5q-24 29 -24 70q0 44 34 73.5t81 29.5t80 -29.5
t33 -70.5t-20 -69q81 -13 123 -48zM473 190q0 14 -11 24.5t-28 10.5q-18 0 -29.5 -10.5t-11.5 -24.5t11.5 -24t29.5 -10q17 0 28 10t11 24z" />
    <glyph glyph-name="uni0E55" unicode="&#xe55;" horiz-adv-x="654" 
d="M343 117q-24 29 -24 70q0 44 34 73.5t81 29.5t80 -29.5t33 -70.5t-20 -69q81 -13 123 -48l-77 -93q-67 38 -120 38q-21 0 -74 -11t-100 -11q-100 0 -171 56.5t-73 158.5q-2 73 44.5 129t129.5 74q-14 20 -14 46q0 48 36.5 80t94.5 32q59 0 95.5 -29t36.5 -78
q0 -19 -7 -31q80 0 80 141h130q0 -116 -47 -184.5t-136 -68.5h-163q-63 0 -107 -30t-42 -81q2 -45 37 -72t82 -27q40 0 58 5zM370 462q0 16 -12.5 26.5t-31.5 10.5q-17 0 -30 -10.5t-13 -26.5q0 -17 12.5 -27.5t30.5 -10.5q20 0 32 10.5t12 27.5zM473 190q0 14 -11 24.5
t-28 10.5q-18 0 -29.5 -10.5t-11.5 -24.5t11.5 -24t29.5 -10q17 0 28 10t11 24z" />
    <glyph glyph-name="uni0E56" unicode="&#xe56;" horiz-adv-x="611" 
d="M576 218q0 -99 -77 -163.5t-196 -64.5q-107 0 -169.5 49.5t-62.5 113.5q0 47 35 80t85 33t84.5 -32t34.5 -75q0 -29 -14 -53h7q58 0 99.5 32t41.5 80q0 46 -37 77t-95 31q-74 0 -136 -48l-91 21q-13 66 -49.5 109t-108.5 93l105 74q104 -67 148 -173q62 37 139 37
q112 0 184.5 -61.5t72.5 -159.5zM230 159q0 14 -11.5 24t-28.5 10t-28 -10.5t-11 -23.5t11 -23t28 -10t28.5 9.5t11.5 23.5z" />
    <glyph glyph-name="uni0E57" unicode="&#xe57;" horiz-adv-x="808" 
d="M730 600l106 -80q-40 -12 -62 -45t-22 -62v-276q0 -63 -41.5 -100t-110.5 -37h-169v248q0 53 -46 67l-70 -64l-78 64q-46 -14 -46 -67v-28q46 -4 77.5 -36t31.5 -75q0 -48 -36 -82t-87 -34q-53 0 -87 34t-34 82v150q0 76 46 123.5t139 56.5l70 -57l71 57
q90 -8 136.5 -55.5t46.5 -124.5v-154q20 0 30 2t18.5 12.5t8.5 31.5v274q0 111 108 175zM222 109q0 17 -12.5 28t-32.5 11q-17 0 -28 -11t-11 -28t11 -28t28 -11q20 0 32.5 11t12.5 28z" />
    <glyph glyph-name="uni0E58" unicode="&#xe58;" horiz-adv-x="672" 
d="M525 578l128 -19q-22 -151 -109 -259q-106 28 -190 28q-82 0 -134.5 -34.5t-52.5 -84.5q0 -54 46 -81l95 84l123 -99l11 6q-9 4 -17.5 23t-8.5 41q0 39 31.5 68t77.5 29t79 -27.5t34 -68.5q4 -88 -119 -149l-102 -49l-105 78l-78 -77q-86 22 -142.5 80t-56.5 142
q0 104 88 167t217 63q81 0 144 -9q28 55 41 148zM562 179q0 14 -11 24t-26 10t-26.5 -10.5t-11.5 -23.5q0 -14 11.5 -24t26.5 -10t26 10t11 24z" />
    <glyph glyph-name="uni0E59" unicode="&#xe59;" horiz-adv-x="686" 
d="M605 566h130q7 -89 -18 -165.5t-70 -121.5l-43 13q-14 37 -55 37q-34 0 -43 -22q72 -102 104 -299l-127 -14q-9 72 -20.5 123.5t-33.5 103t-59 78.5t-88 27t-83.5 -30t-32.5 -73q0 -37 20 -71q9 36 41 59t74 23q51 0 85.5 -34t34.5 -79q0 -54 -47 -89.5t-109 -35.5
q-101 0 -167 66t-66 163q0 95 69.5 154.5t174.5 59.5q82 0 142 -43q39 52 109 52q43 0 76 -18q18 55 2 136zM339 119q0 14 -11.5 25t-27.5 11t-27.5 -11t-11.5 -25q0 -13 11.5 -23.5t27.5 -10.5t27.5 10.5t11.5 23.5z" />
    <glyph glyph-name="uni0E5A" unicode="&#xe5a;" horiz-adv-x="720" 
d="M664 0h-93v311q-32 -22 -70 -35v-276h-136v311q-67 -47 -147 -47q-97 0 -150 45t-53 107q0 64 53.5 106.5t133.5 42.5q58 0 113 -24v-104q-37 18 -90 18q-33 0 -53 -11t-20 -28q0 -18 22.5 -28.5t51.5 -10.5q84 0 139 58v123h136v-169q40 16 70 46v123h93v-558z" />
    <glyph glyph-name="uni0E5B" unicode="&#xe5b;" horiz-adv-x="1074" 
d="M1046 296q0 -34 -50 -38l-109 -11q-18 -36 -43 -36q-15 0 -35 35q-21 -51 -47 -51q-17 0 -41 45l-3 6q-22 -66 -53 -66q-15 0 -24 15t-20 48q-14 -42 -30 -61t-40 -19q-8 0 -14.5 2.5t-11 6t-9 10.5t-7 11.5t-5.5 13.5t-4 13t-3 13t-2 10q-22 -90 -87 -150t-156 -60
q-92 0 -151 69.5t-59 179.5q0 106 55 178.5t135 72.5q69 0 116 -53.5t47 -133.5q0 -63 -31.5 -104t-78.5 -41q-42 0 -70.5 30t-28.5 75q0 42 28 74.5t66 32.5q-3 10 -17.5 20.5t-29.5 10.5q-40 0 -66 -45.5t-26 -118.5q0 -69 34.5 -114.5t85.5 -45.5q64 0 112.5 65.5
t61.5 168.5q5 41 18 55.5t37 14.5q16 0 33 -18t31 -47v1q2 50 43 50q27 0 63 -60q4 14 13 24.5t20 10.5q30 0 63 -56q14 36 36 36q19 0 49 -40q21 21 34 20l121 -12q50 -4 50 -37zM317 308q0 15 -10 25t-24 10t-23 -10t-9 -25q0 -14 9.5 -24.5t22.5 -10.5q14 0 24 10.5
t10 24.5z" />
    <glyph glyph-name="endash" unicode="&#x2013;" horiz-adv-x="505" 
d="M470 183h-435v99h435v-99z" />
    <glyph glyph-name="emdash" unicode="&#x2014;" horiz-adv-x="1010" 
d="M975 183h-940v99h940v-99z" />
    <glyph glyph-name="quoteleft" unicode="&#x2018;" horiz-adv-x="229" 
d="M180 361h-131v141q0 64 37 105.5t94 49.5v-60q-61 -23 -61 -93h61v-143z" />
    <glyph glyph-name="quoteright" unicode="&#x2019;" horiz-adv-x="229" 
d="M180 657v-141q0 -63 -37 -105t-94 -50v60q61 24 61 94h-61v142h131z" />
    <glyph glyph-name="quotedblleft" unicode="&#x201c;" horiz-adv-x="424" 
d="M375 361h-131v141q0 64 37 105.5t94 49.5v-60q-61 -24 -61 -93h61v-143zM180 361h-131v141q0 64 37 105.5t94 49.5v-60q-61 -23 -61 -93h61v-143z" />
    <glyph glyph-name="quotedblright" unicode="&#x201d;" horiz-adv-x="424" 
d="M375 657v-141q0 -63 -37 -105t-94 -50v60q62 23 62 94h-62v142h131zM180 657v-141q0 -63 -37 -105t-94 -50v60q61 24 61 94h-61v142h131z" />
    <glyph glyph-name="bullet" unicode="&#x2022;" horiz-adv-x="516" 
d="M467 279q0 -87 -61 -148t-148 -61t-148 61t-61 148t61 148t148 61t148 -61t61 -148z" />
    <glyph glyph-name="ellipsis" unicode="&#x2026;" horiz-adv-x="751" 
d="M693 0h-138v142h138v-142zM444 0h-138v142h138v-142zM194 0h-138v142h138v-142z" />
    <glyph glyph-name="B" unicode="&#xe000;" horiz-adv-x="642" 
d="M607 191q0 -95 -65.5 -143t-162.5 -48h-316v657h301q104 0 159 -37.5t55 -125.5q0 -92 -88 -137q58 -16 87.5 -60t29.5 -106zM438 470q0 75 -92 75h-141v-154h147q86 0 86 79zM466 199q0 94 -103 94h-158v-180h158q103 0 103 86z" />
    <glyph glyph-name="E" unicode="&#xe001;" horiz-adv-x="591" 
d="M554 0h-491v657h491v-121h-349v-141h320v-112h-320v-162h349v-121z" />
    <glyph glyph-name="S" unicode="&#xe002;" horiz-adv-x="589" 
d="M566 195q0 -94 -70 -152t-199 -58q-55 0 -104 14t-88 42t-61 73.5t-22 104.5h137q0 -61 41 -92t103 -31q48 0 86.5 19t38.5 64q0 12 -3 21.5t-10 18t-13.5 14.5t-19.5 12t-22.5 9.5t-26.5 8.5t-27.5 7.5t-30.5 7t-31 7.5q-42 10 -73.5 22.5t-62 33.5t-47 55t-16.5 78
q0 93 71 145.5t170 52.5q52 0 97 -12t82 -36t58.5 -65.5t21.5 -96.5h-138q-5 99 -128 99q-38 0 -68 -20t-30 -56q0 -35 38 -52t152 -45q97 -23 146 -67t49 -126z" />
    <glyph glyph-name="b" unicode="&#xe003;" horiz-adv-x="557" 
d="M523 239q0 -123 -58.5 -187.5t-140.5 -64.5q-110 0 -151 72h-1v-59h-123v657h128v-236h3q45 67 148 67q78 0 136.5 -64t58.5 -185zM396 237q0 65 -29 109.5t-82 44.5q-55 0 -83.5 -44.5t-28.5 -109.5q0 -64 29 -108t83 -44q53 0 82 44.5t29 107.5z" />
    <glyph glyph-name="s" unicode="&#xe004;" horiz-adv-x="487" 
d="M460 153q0 -87 -61.5 -126.5t-151.5 -39.5q-59 0 -106 15t-80 55t-34 101h121q2 -43 29.5 -63.5t69.5 -20.5q34 0 59.5 15t25.5 46q0 27 -29.5 41t-97.5 28q-167 32 -167 138q0 76 58 111t143 35q196 0 209 -150h-123q-5 64 -88 64q-32 0 -51.5 -12.5t-19.5 -32.5
q0 -15 10.5 -26.5t29.5 -19t40.5 -12.5t48.5 -10q11 -2 17 -3q66 -13 107 -42.5t41 -90.5z" />
    <glyph glyph-name="y" unicode="&#xe006;" horiz-adv-x="474" 
d="M480 476l-194 -536q-21 -58 -60 -82.5t-107 -24.5q-44 0 -79 4v110q70 -16 103.5 8.5t15.5 73.5l-165 447h136l107 -323h2l101 323h140z" />
    <glyph glyph-name="a" horiz-adv-x="520" 
d="M487 0h-131q-10 17 -10 46q-55 -59 -158 -59q-70 0 -114.5 36.5t-44.5 106.5q0 39 13 66.5t37.5 43t49.5 23t59 12.5q13 2 33.5 4t32 3.5t27.5 4.5t25 6.5t17.5 9.5t12.5 15t4 20q0 36 -21.5 50t-61.5 14q-78 0 -85 -74h-127q3 85 63.5 122.5t152.5 37.5q40 0 74 -6
t66 -20.5t50.5 -43t18.5 -69.5v-267q0 -66 17 -82zM340 184v49q-9 -9 -25 -13.5t-44 -8.5t-38 -6q-75 -13 -75 -70q0 -61 78 -61q104 0 104 110z" />
    <glyph glyph-name="c" horiz-adv-x="523" 
d="M375 181h126q-13 -94 -73.5 -144t-155.5 -50q-108 0 -172.5 68t-64.5 177q0 113 64 184.5t176 71.5q89 0 153 -47.5t70 -133.5h-127q-6 40 -31 62t-65 22q-39 0 -65 -24.5t-36.5 -58t-10.5 -72.5q0 -60 26.5 -105.5t82.5 -45.5q43 0 70 26t33 70z" />
    <glyph glyph-name="thothannobasethai" horiz-adv-x="568" 
d="M550 557l-72 -88q58 -75 58 -179q0 -66 -24 -122t-69 -97t-115 -61t-156 -13l-51 235h-61v111h173l46 -226q50 10 85.5 62t35.5 111q0 67 -43.5 114t-119.5 47q-97 0 -159 -77l-82 85q60 59 123 84t143 25q66 0 115 -23l43 62z" />
    <glyph glyph-name="saraileftthai" 
d="M-234 628h-419v97h419v-97z" />
    <glyph glyph-name="saraiileftthai" 
d="M-234 628h-419v97h282v70h137v-167z" />
    <glyph glyph-name="saraueleftthai" 
d="M-211 716q0 -37 -26.5 -62.5t-66.5 -25.5h-350v97h258q4 35 29 57.5t63 22.5q40 0 66.5 -26t26.5 -63zM-269 716q0 14 -10.5 24.5t-24.5 10.5q-15 0 -25 -10.5t-10 -24.5q0 -15 10 -25t25 -10q14 0 24.5 10t10.5 25z" />
    <glyph glyph-name="saraueeleftthai" 
d="M-234 628h-419v97h166v70h74v-70h42v70h137v-167z" />
    <glyph glyph-name="maieklowleftthai" 
d="M-248 628h-137v167h137v-167z" />
    <glyph glyph-name="maitholowleftthai" 
d="M7 628h-372v68q0 15 -14 15h-41v84h98q79 0 79 -67v-3h250v-97z" />
    <glyph glyph-name="maitrilowleftthai" 
d="M-180 628h-195v71q0 5 -2.5 9.5t-4.5 6.5l-2 2l-60 -49l-68 49q-8 -6 -8 -17v-44l14 -28h-130v75q0 92 105 92h33l54 -36l51 36h33q102 0 102 -84v-8h78v-75z" />
    <glyph glyph-name="maichattawalowleftthai" 
d="M-220 686h-70v-58h-137v58h-70v85h70v59h137v-59h70v-85z" />
    <glyph glyph-name="thanthakhatlowleftthai" 
d="M-165 753h-44q-39 0 -39 -33v-17h-137v43q0 50 29.5 74t80.5 24h110v-91z" />
    <glyph glyph-name="maieklowrightthai" 
d="M-56 628h-137v167h137v-167z" />
    <glyph glyph-name="maitholowrightthai" 
d="M14 628h-294v68q0 15 -14 15h-41v84h98q79 0 79 -67v-3h172v-97z" />
    <glyph glyph-name="maitrilowrightthai" 
d="M-15 628h-196v71q0 5 -2 9.5t-4 6.5l-2 2l-60 -49l-68 49q-9 -6 -9 -17v-44l14 -28h-130v75q0 92 105 92h34l54 -36l50 36h34q102 0 102 -84v-8h78v-75z" />
    <glyph glyph-name="maichattawalowrightthai" 
d="M-56 686h-70v-58h-122v58h-70v85h70v59h122v-59h70v-85z" />
    <glyph glyph-name="thanthakhatlowrightthai" 
d="M-24 678h-44q-39 0 -39 -34v-16h-137v43q0 49 30 73.5t80 24.5h110v-91z" />
    <glyph glyph-name="yoyingnobasethai" horiz-adv-x="939" 
d="M883 184q0 -88 -69.5 -141t-171.5 -53q-103 0 -171.5 53t-68.5 141v180q0 40 -30.5 64.5t-78.5 24.5q-70 0 -100 -40v-301h86v-112h-223v453q87 115 241 115q106 0 173.5 -50t67.5 -144v-184q0 -40 30 -62.5t74 -22.5q45 0 76 22.5t31 62.5v368h134v-374z" />
    <glyph glyph-name="maihanakatleftthai" 
d="M10 628h-454v167h137v-70h317v-97z" />
    <glyph glyph-name="nikhahitleftthai" 
d="M-205 713q0 -39 -28 -65.5t-71 -26.5t-71 26.5t-28 65.5t28.5 65.5t70.5 26.5t70.5 -26.5t28.5 -65.5zM-266 713q0 16 -11.5 25.5t-26.5 9.5q-16 0 -27 -9.5t-11 -25.5t11 -25.5t27 -9.5q15 0 26.5 9.5t11.5 25.5z" />
    <glyph glyph-name="maitaikhuleftthai" 
d="M-177 764h-257q-31 0 -49.5 -16t-18.5 -38h50l74 41l71 -41h87v-82h-94l-64 37l-67 -37h-152v60q0 64 41.5 105t117.5 41h261v-70z" />
    <glyph glyph-name="maiekupperleftthai" 
d="M-234 837h-137v139h137v-139z" />
    <glyph glyph-name="maithoupperleftthai" 
d="M-130 837h-265v61q0 14 -12 14h-24v76h75q71 0 71 -60v-3h155v-88z" />
    <glyph glyph-name="maitriupperleftthai" 
d="M-18 837h-176v64q0 5 -2 9t-4 6l-2 1l-53 -44l-62 44q-8 -5 -8 -16v-39l13 -25h-118v67q0 84 95 84h31l49 -34l44 34h31q41 0 66 -18.5t25 -57.5v-8h71v-67z" />
    <glyph glyph-name="maichattawaupperleftthai" 
d="M-180 890h-63v-53h-122v53h-63v77h63v53h122v-53h63v-77z" />
    <glyph glyph-name="thanthakhatupperleftthai" 
d="M-190 826h-40q-35 0 -35 -29v-16h-123v39q0 45 27 66.5t72 21.5h99v-82z" />
    <glyph glyph-name="saraulowthai" 
d="M-56 -439h-137v104h-55v84h192v-188z" />
    <glyph glyph-name="sarauulowthai" 
d="M-56 -251v-98q0 -47 -47.5 -72t-112.5 -25q-40 0 -83.5 14t-67.5 39v58h-43v84h162v-96q14 -11 34.5 -7.5t20.5 22.5v81h137z" />
    <glyph glyph-name="phinthulowthai" 
d="M-56 -335q0 -36 -26.5 -59.5t-64.5 -23.5t-64.5 23.5t-26.5 59.5t26.5 60t64.5 24t64.5 -24t26.5 -60z" />
    <glyph glyph-name="uni0E33_1" horiz-adv-x="424" 
d="M367 0h-130v343q0 48 -28.5 74.5t-75.5 26.5q-57 0 -111 -34v126q65 32 137 32q101 0 154.5 -59.5t53.5 -152.5v-356zM-205 713q0 -39 -28 -65.5t-71 -26.5t-71 26.5t-28 65.5t28.5 65.5t70.5 26.5t70.5 -26.5t28.5 -65.5zM-266 713q0 16 -11.5 25.5t-26.5 9.5
q-16 0 -27 -9.5t-11 -25.5t11 -25.5t27 -9.5q15 0 26.5 9.5t11.5 25.5z" />
    <glyph glyph-name="uni0E4E_1" 
d="M-106 989v-81q-60 18 -125 6t-65 -45q0 -27 55 -21v-72q-44 4 -94 -10t-50 -39q0 -21 36.5 -22t70.5 19l39 -67q-47 -29 -114 -29q-54 0 -89.5 25t-35.5 67q0 39 36.5 66.5t87.5 32.5q-37 13 -37 51q0 64 79.5 101t205.5 18z" />
    <glyph glyph-name="maiekrochula" 
d="M-179 628h-136v167h136v-167z" />
    <glyph glyph-name="maieksarauee_1" 
d="M-112 837h-136v139h136v-139z" />
    <glyph glyph-name="maieksarauee_2" 
d="M-290 837h-137v139h137v-139z" />
    <glyph glyph-name="saraisp" 
d="M-158 628h-460v97h460v-97z" />
    <glyph glyph-name="saraiisp" 
d="M-156 628h-461v97h324v70h137v-167z" />
    <glyph glyph-name="trademark" horiz-adv-x="787" 
d="M731 283h-92v176l-54 -176h-72l-53 173v-173h-90v374h103l77 -254l76 254h105v-374zM328 575h-103v-292h-94v292h-103v82h300v-82z" />
    </font>
</defs>
</svg>
